<svg xmlns="http://www.w3.org/2000/svg" width="2700" height="900" viewBox="0 0 2700 900">
  <defs>
    <style>
      .cls-1 {
        font-size: 250px;
        font-family: Athelas;
      }

      .cls-1, .cls-3 {
        fill: #fff;
      }

      .cls-2 {
        fill: #faf3f0;
        fill-rule: evenodd;
      }

      .cls-3 {
        font-size: 300px;
        font-family: "Libre Bodoni";
      }
    </style>
  </defs>
  <text id="David_Güere" data-name="David Güere" class="cls-1" x="196.071" y="775.357">David Güere</text>
  <path id="G" class="cls-2" d="M1344.02,147.853c-26.3-15.6-59.54-25.479-97.76-25.479-36.7,0-82.25,15.946-97.26,25.626-12.61,8.129-16.64,2.943-22-1-0.2-.713-2.47-0.918-5-7-5.12-12.329-9-10-9-10l-12.37-.126v121.25h15.63C1130.01,181.124,1165.13,147,1247,147c25.76,0,51.17,7.013,71.39,22.868,0.29,0.222,5.4-5.511,11.61-10.868C1336.58,153.321,1344.25,147.991,1344.02,147.853Zm7.42,67.093c14,32.224,21.28,78.1,18.56,142.054-4.9,115.08-86.19,128.512-114.74,128.624-24.3.1-78.26-3.124-108.26-35.624,0,0,1.28-46.88,1.93-76.341,0.13-5.779,6.26-11.49,11.07-13.659,0,0,3.54-1.836,11-2,22.07-.486,27.88.624,27.88,0.624V343l-135.25-1v15.625s13.99,0.347,24.37.259c11.96-.1,12,12.117,12,12.117h0c0.27,21.873,0,5,0,5,1.18,37.465.26,46.386,0,72-0.09,8.732-.06,20.607,2,23,1.49,1.737,10.63,6.346,14,8,50.47,24.735,85.43,36.169,137,35,132.38-3,177.41-74.2,178-183,0.33-60.647-16.89-115.708-51.94-153.866-0.25-.274-7.94,5.86-15.06,15.866C1357.37,201.322,1351.26,214.539,1351.44,214.946Z"/>
  <path id="G-2" data-name="G" class="cls-2" d="M1347,431c-9.75-17.934-17.75-43.427-19.06-74.206-7.04-165.722,52.94-210.151,122.87-210.151,81.79,0,116.88,34.149,130.61,104.2h15.61V129.505l-12.35.125s-3.88-2.33-9,10.008c-2.52,6.086-4.79,6.291-4.99,7-5.36,3.945-9.38,9.136-21.98,1-15-9.686-60.49-25.644-97.16-25.644-124.24,0-185.17,94.077-184.55,207.775,0.31,57.348,12.79,105.23,44,137.226,0.36,0.372,12.72-8.148,21-17C1340.95,440.428,1347.24,431.444,1347,431Zm41,40c20.37,10.422,45.95,14.465,57.56,14.511,24.28,0.1,78.18-3.127,108.15-35.65,0,0-1.28-46.914-1.93-76.4-0.12-5.784-6.25-11.5-11.06-13.669,0,0-3.54-1.837-10.99-2-22.04-.487-27.85.624-27.85,0.624V342.783l135.11-1v15.637s-13.97.347-24.34,0.259c-11.95-.1-11.99,12.125-11.99,12.125h0c-0.27,21.889,0,5,0,5-1.17,37.492-.25,46.419,0,72.052,0.09,8.738.06,20.622-2,23.016-1.49,1.738-10.61,6.351-13.98,8.006-50.42,24.753-85.34,36.2-136.86,35.025-35.97-.816-67.9-7.6-91.82-17.906-0.67-.286,7.93-4.978,17-11C1381.34,478.463,1387.34,470.661,1388,471Z"/>
  <text id="_______________" class="cls-3" x="139.206" y="537.189">_______________</text>
</svg>
